<svg xmlns="http://www.w3.org/2000/svg" fill="currentColor" width="40" height="40">
  <path d="M101.352 520.27L145.706 457.239C149.689 451.692 154.056 448.792 160.781 447.705L161.072 447.815C175.767 452.761 190.342 448.261 203.913 442.44L253.438 419.771C244.169 417.187 233.873 419.498 224.437 419.768C215.293 420.03 212.683 410.434 218.214 405.503C226.85 397.804 254.893 402.582 265.023 405.124C271.605 406.776 280.152 408.133 279.004 416.875C277.398 429.094 257.564 435.719 248.297 440.289L213.444 456.828C193.714 465.324 182.724 467.931 161.118 465.632C158.738 467.852 156.96 470.743 155.142 473.419L111.202 535.539C109.541 537.947 108.014 540.586 106.087 542.788C97.5512 552.541 83.4808 554.737 73.5435 545.671C57.8787 531.38 68.2245 516.844 77.3841 503.935L127.487 441.663C118.755 423.674 116.598 412.044 123.018 393.443C133.436 363.261 158.736 326.821 184.149 307.477C187.391 305.009 191.523 301.913 195.643 301.235L196.094 301.169C204.566 299.864 207.397 308.401 201.907 314.166C198.161 318.1 193.597 321.459 189.535 325.088C168.544 343.844 147.716 372.169 138.874 399.474C135.338 410.396 135.131 418.501 140.482 429.019C166.338 400.614 194.868 374.448 223.839 349.272L254.259 323.378L294.922 291.785C330.475 264.89 367.667 239.232 407.706 219.411L472.894 190.857L526.837 165.007L542.083 155.707C544.806 154.007 547.895 152.67 550.517 150.896L550.909 150.626L551.248 150.39L550.909 150.626C547.556 150.396 543.299 151.17 539.883 151.46L515.938 154.633L457.046 165.883C414.836 174.832 343.104 197.467 314.367 232.776C311.707 236.044 308.922 243.482 304.359 244.196C299.624 244.937 292.583 238.771 289.041 236.18C287.518 236.697 285.946 238.032 284.638 238.956L275.466 245.927C259.113 259.147 243.631 275.599 236.289 295.677L233.311 304.734C231.957 309.179 230.502 314.771 226.358 317.496C216.599 323.912 208.194 302.659 209.224 299.47C210.834 294.49 217.978 292.65 220.74 288.558C221.818 286.961 222.52 284.853 223.289 283.08C233.845 258.718 254.987 239.065 276.409 224.265C285.084 218.271 296.355 207.006 302.266 221.064C306.94 215.768 312.31 211.163 317.774 206.701C367.424 166.155 438.613 150.961 500.546 140.191C513.903 137.868 567.833 128.566 579.629 135.467C588.734 140.795 582.159 148.427 576.563 152.574L520.506 189.392L513.129 193.285C511.58 194.029 508.611 194.878 507.738 196.25L508.215 197.5C507.391 200.125 504.015 206.089 500.83 206.541C499.985 206.661 496.973 205.365 496.016 205.081C486.901 202.374 481 205.625 472.575 209.129L447.232 220.09C429.766 227.768 412.247 235.317 395.619 244.728C365.191 261.948 336.543 281.953 308.603 302.904L217.065 378.003L148.594 444.517L126.399 469C119.754 476.966 81.736 522.855 82.6245 529.062C83.3221 533.937 88.4408 535.911 91.9594 532.662C95.612 529.289 98.4978 524.336 101.352 520.27Z" transform="scale(.8)"></path>
  <path d="M285.068 372.848L330.15 358.684C325.354 357.95 320.456 357.641 315.625 357.201L292.275 355.978C285.435 355.885 273.947 354.315 278.525 344.041C281.228 337.973 288.482 338.338 294.053 338.584L310.625 340.02C325.746 341.276 334.381 341.885 348.834 346.193C354.959 348.018 354.18 348.055 359.924 345.349L373.438 339.253C364.791 335.271 355.468 331.683 345.842 331.193C341.843 330.989 337.274 331.566 333.374 330.825C325.089 329.25 325.175 317.553 335.778 314.814C346.056 312.159 356.984 312.192 367.338 309.873C374.484 308.272 381.397 305.331 388.262 302.814C408.281 295.478 429.11 288.074 445.173 273.498C440.684 269.287 436.48 260.323 443.734 256.521C446.752 254.94 451.144 254.484 454.48 253.631C474.96 248.393 492.622 234.925 503.342 216.802C505.623 212.946 507.023 209.004 511.281 206.956C525.988 205.111 522.851 216.42 518.08 225C509.662 240.139 496.725 251.958 481.877 260.674L473.459 265.13C469.464 267.185 469.305 266.192 469.311 269.531C469.33 280.074 440.086 298.341 431.815 302.901C422.845 307.846 413.24 311.574 403.654 315.132L378.588 323.708L384.183 326.056C415.528 340.451 390.068 348.879 372.951 357.248L355.835 365.743C345.6 370.502 335.121 374.699 324.437 378.339L299.074 386.389C283.077 390.692 266.736 393.677 250.412 396.416C246.343 397.099 241.756 398.477 237.656 398.408C228.46 398.254 227.352 384.53 237.895 380.941C240.486 380.059 243.349 379.859 246.061 379.572L285.068 372.848Z" transform="scale(.8)"></path>
</svg>
